<svg width="25" height="24" viewBox="0 0 25 24" fill="none" xmlns="http://www.w3.org/2000/svg">
<path d="M22.3332 11.0499L12.7603 20.2399C11.5876 21.3658 9.99696 21.9983 8.33844 21.9983C6.67991 21.9983 5.08932 21.3658 3.91656 20.2399C2.74381 19.1141 2.08496 17.5871 2.08496 15.9949C2.08496 14.4027 2.74381 12.8758 3.91656 11.7499L13.4895 2.55992C14.2713 1.80936 15.3317 1.3877 16.4374 1.3877C17.5431 1.3877 18.6035 1.80936 19.3853 2.55992C20.1671 3.31048 20.6064 4.32846 20.6064 5.38992C20.6064 6.45138 20.1671 7.46936 19.3853 8.21992L9.80198 17.4099C9.41106 17.7852 8.88086 17.996 8.32802 17.996C7.77518 17.996 7.24498 17.7852 6.85406 17.4099C6.46314 17.0346 6.24353 16.5256 6.24353 15.9949C6.24353 15.4642 6.46314 14.9552 6.85406 14.5799L15.6978 6.09992" stroke="black" stroke-width="2" stroke-linecap="round" stroke-linejoin="round"/>
</svg>
